<?xml version="1.0" standalone="no"?><!DOCTYPE svg PUBLIC "-//W3C//DTD SVG 1.1//EN" "http://www.w3.org/Graphics/SVG/1.1/DTD/svg11.dtd"><svg t="1559031588774" class="icon" style="" viewBox="0 0 1024 1024" version="1.1" xmlns="http://www.w3.org/2000/svg" p-id="1598" xmlns:xlink="http://www.w3.org/1999/xlink" width="200" height="200"><defs><style type="text/css"></style></defs><path d="M512 944.992a66.528 66.528 0 0 1-33.28-8.896l-105.952-62.688c-15.808-8.864-8.096-12-2.88-13.792a211.2 211.2 0 0 0 48-21.792 8.128 8.128 0 0 1 7.872 0.608l81.408 48.32a10.464 10.464 0 0 0 9.824 0l317.344-183.168a10.016 10.016 0 0 0 4.864-8.576V328.736a10.24 10.24 0 0 0-5.088-8.736l-317.248-183.008a9.952 9.952 0 0 0-9.792 0L189.952 320a10.208 10.208 0 0 0-5.024 8.704v366.272a9.6 9.6 0 0 0 4.992 8.48l86.944 50.24c47.168 23.584 76.064-4.192 76.064-32V360a9.12 9.12 0 0 1 9.216-9.152h40.256a9.152 9.152 0 0 1 9.184 9.152v361.6c0 62.944-34.272 99.2-93.984 99.2a135.776 135.776 0 0 1-73.088-19.872l-83.2-48A67.2 67.2 0 0 1 128 694.976V328.736a66.88 66.88 0 0 1 33.28-57.824l317.344-183.392a69.536 69.536 0 0 1 66.688 0l317.344 183.392A66.976 66.976 0 0 1 896 328.736v366.24a67.2 67.2 0 0 1-33.344 57.888l-317.344 183.232a66.56 66.56 0 0 1-33.312 8.896z" fill="#80BD01" p-id="1599"></path><path d="M609.952 692.672c-138.88 0-167.968-63.744-167.968-117.216a9.12 9.12 0 0 1 9.216-9.056h41.024a9.184 9.184 0 0 1 9.12 7.776c6.208 41.76 24.672 62.848 108.8 62.848 66.848 0 95.328-15.136 95.328-50.592 0-20.448-8.064-35.616-112-45.792-86.816-8.576-140.544-27.776-140.544-97.248 0-64 53.984-102.208 144.448-102.208 101.664 0 151.968 35.2 158.336 111.008a9.184 9.184 0 0 1-9.152 9.984h-41.312a9.152 9.152 0 0 1-8.896-7.168c-9.888-43.968-33.92-58.016-99.2-58.016-72.992 0-81.472 25.44-81.472 44.48 0 23.072 10.016 29.792 108.576 42.848 97.536 12.8 144 31.136 144 99.68-0.096 69.088-57.856 108.672-158.304 108.672z" fill="#80BD01" p-id="1600"></path></svg>