<?xml version="1.0" standalone="no"?><!DOCTYPE svg PUBLIC "-//W3C//DTD SVG 1.1//EN" "http://www.w3.org/Graphics/SVG/1.1/DTD/svg11.dtd"><svg t="1542874856887" class="icon" style="" viewBox="0 0 1024 1024" version="1.1" xmlns="http://www.w3.org/2000/svg" p-id="7180" xmlns:xlink="http://www.w3.org/1999/xlink" width="200" height="200"><defs><style type="text/css"></style></defs><path d="M512 0C796.535467 0 1024 230.126933 1024 512S793.326933 1024 512 1024 0 793.873067 0 512 230.673067 0 512 0z m0 955.733333c243.9168 0 443.733333-199.816533 443.733333-443.733333S755.9168 68.266667 512 68.266667 68.266667 268.0832 68.266667 512 268.0832 955.733333 512 955.733333z m232.6528-420.113066l-328.0896 191.351466a27.306667 27.306667 0 0 1-41.096533-23.552V320.580267a27.306667 27.306667 0 0 1 41.096533-23.552l328.0896 191.351466a27.306667 27.306667 0 0 1 0 47.240534z" p-id="7181"></path></svg>