<?xml version="1.0" standalone="no"?><!DOCTYPE svg PUBLIC "-//W3C//DTD SVG 1.1//EN" "http://www.w3.org/Graphics/SVG/1.1/DTD/svg11.dtd"><svg t="1542874711002" class="icon" style="" viewBox="0 0 1024 1024" version="1.1" xmlns="http://www.w3.org/2000/svg" p-id="1941" xmlns:xlink="http://www.w3.org/1999/xlink" width="200" height="200"><defs><style type="text/css"></style></defs><path d="M512 0C229.3 0 0 229.3 0 512s229.3 512 512 512 512-229.3 512-512S794.7 0 512 0z m0 937.1C277.3 937.1 86.9 746.7 86.9 512S277.3 86.9 512 86.9 937.1 277.3 937.1 512c0 234.7-190.4 425.1-425.1 425.1z" fill="" p-id="1942"></path><path d="M676.3 693.4H347.7c-9.4 0-17.1-7.7-17.1-17.1V347.7c0-9.4 7.7-17.1 17.1-17.1h328.6c9.4 0 17.1 7.7 17.1 17.1v328.6c0 9.4-7.7 17.1-17.1 17.1z" fill="" p-id="1943"></path></svg>